<?xml version="1.0" standalone="no"?>
<!DOCTYPE svg PUBLIC "-//W3C//DTD SVG 20010904//EN"
 "http://www.w3.org/TR/2001/REC-SVG-20010904/DTD/svg10.dtd">
<svg version="1.0" xmlns="http://www.w3.org/2000/svg"
 width="712.000000pt" height="155.000000pt" viewBox="0 0 712.000000 155.000000"
 preserveAspectRatio="xMidYMid meet">
<metadata>
Created by potrace 1.16, written by Peter Selinger 2001-2019
</metadata>
<g transform="translate(0.000000,155.000000) scale(0.100000,-0.100000)"
fill="#000000" stroke="none">
<path d="M410 1241 c14 -4 24 -13 22 -20 -1 -7 1 -18 7 -25 10 -12 231 -805
231 -829 0 -9 -10 -18 -22 -20 -13 -2 11 -4 52 -5 42 0 64 3 51 7 -13 3 -28
13 -33 21 -8 15 -238 836 -238 852 0 5 10 13 23 18 16 6 3 9 -48 8 -47 0 -62
-2 -45 -7z"/>
<path d="M870 1237 l25 -13 0 -429 0 -429 -25 -13 c-21 -11 9 -13 183 -13
l207 0 -1 28 c0 27 -1 27 -11 5 -11 -22 -15 -23 -160 -23 l-148 0 2 437 3 437
25 13 c22 11 17 13 -50 13 -67 0 -72 -2 -50 -13z"/>
<path d="M1398 1240 l22 -9 -2 -438 -3 -437 -25 -7 c-14 -4 68 -7 183 -8 l207
-1 0 23 c-1 20 -2 20 -11 5 -9 -16 -28 -18 -159 -18 l-150 0 0 355 c0 383 -1
377 51 336 110 -86 183 -131 213 -130 31 1 31 1 -6 8 -20 4 -43 12 -50 18 -7
5 -39 31 -71 56 -32 26 -76 56 -97 67 l-40 20 0 80 0 80 154 0 154 0 10 -27
10 -28 1 33 1 32 -207 -1 c-135 0 -200 -3 -185 -9z"/>
<path d="M1908 1243 c12 -2 29 -17 37 -33 21 -41 167 -413 169 -430 0 -8 4
-17 8 -20 3 -3 41 -92 84 -199 73 -184 76 -195 59 -207 -16 -12 -10 -14 51
-13 38 1 59 4 47 6 -12 2 -26 10 -31 16 -17 21 -183 441 -184 465 0 12 -4 22
-8 22 -10 0 -150 348 -150 372 0 9 8 19 18 21 9 3 -14 5 -53 4 -38 0 -60 -2
-47 -4z"/>
<path d="M2640 1241 c14 -4 25 -13 25 -21 0 -8 3 -17 6 -20 8 -7 230 -811 229
-832 0 -9 -10 -19 -22 -21 -13 -2 11 -4 52 -4 41 0 65 2 52 4 -12 2 -26 12
-31 21 -8 15 -241 844 -241 857 0 3 10 10 23 15 16 6 3 9 -48 8 -44 0 -61 -3
-45 -7z"/>
<path d="M3088 1240 c12 -5 22 -15 22 -22 0 -10 2 -10 8 -1 5 8 92 -153 235
-435 l227 -447 0 63 c0 34 -3 62 -7 62 -5 0 -98 178 -208 395 l-200 395 -50
-1 c-40 0 -45 -2 -27 -9z"/>
<path d="M3747 1243 c13 -2 25 -14 28 -26 3 -12 4 -209 3 -437 l-3 -414 -25
-13 c-21 -11 13 -12 200 -11 224 3 225 3 48 5 l-178 3 0 445 0 445 188 3 c175
2 172 3 -48 3 -129 1 -225 -1 -213 -3z"/>
<path d="M4680 1241 l25 -7 3 -436 2 -436 -27 -10 c-23 -9 -15 -11 47 -11 67
-1 72 1 50 12 l-25 13 -2 436 -3 437 83 4 c55 2 39 3 -48 4 -71 1 -119 -2
-105 -6z"/>
<path d="M5200 1241 l25 -7 3 -436 2 -436 -27 -10 c-23 -9 -15 -10 47 -11 54
0 69 3 53 9 -12 5 -25 19 -28 32 -3 13 -4 207 -3 433 l3 409 25 13 c22 11 17
13 -50 12 -47 -1 -66 -4 -50 -8z"/>
<path d="M5620 1241 c14 -4 24 -13 22 -20 -1 -7 1 -18 7 -25 10 -12 231 -805
231 -829 0 -9 -10 -18 -22 -20 -13 -2 11 -4 52 -5 42 0 64 3 51 7 -13 3 -28
13 -33 21 -8 15 -238 836 -238 852 0 5 10 13 23 18 16 6 3 9 -48 8 -47 0 -62
-2 -45 -7z"/>
<path d="M4379 1142 c93 -93 131 -194 131 -348 0 -179 -71 -324 -194 -395 -28
-16 -46 -29 -41 -29 23 0 122 66 164 109 174 179 172 461 -3 636 -29 29 -66
60 -83 68 -25 13 -20 5 26 -41z"/>
<path d="M6271 1035 c-1 -44 38 -105 86 -135 45 -29 87 -44 339 -119 124 -38
191 -80 222 -141 16 -33 22 -38 22 -22 0 36 -25 84 -61 119 -47 45 -120 75
-294 124 -206 57 -270 92 -301 163 -10 23 -13 26 -13 11z"/>
<path d="M4867 851 c-16 -10 -25 -20 -20 -22 5 -2 26 -53 47 -114 75 -219 165
-376 271 -473 109 -99 217 -143 345 -141 l65 2 -85 7 c-137 12 -224 55 -317
153 -68 72 -107 132 -164 250 -55 117 -122 313 -116 339 6 22 8 22 -26 -1z"/>
</g>
</svg>
