<?xml version="1.0" standalone="no"?>
<!DOCTYPE svg PUBLIC "-//W3C//DTD SVG 20010904//EN"
 "http://www.w3.org/TR/2001/REC-SVG-20010904/DTD/svg10.dtd">
<svg version="1.0" xmlns="http://www.w3.org/2000/svg"
 width="708.000000pt" height="149.000000pt" viewBox="0 0 708.000000 149.000000"
 preserveAspectRatio="xMidYMid meet">

<g transform="translate(0.000000,149.000000) scale(0.100000,-0.100000)"
fill="#000000" stroke="none">
<path d="M6073 1345 c-28 -30 -50 -55 -48 -55 1 0 29 15 61 33 39 22 59 39 59
52 0 34 -19 26 -72 -30z"/>
<path d="M6408 1236 c-108 -29 -168 -102 -168 -205 0 -121 62 -167 333 -245
181 -53 241 -80 285 -131 31 -35 37 -49 46 -110 2 -16 3 2 2 41 -1 61 -6 77
-29 108 -40 51 -112 89 -241 126 -216 61 -277 83 -316 111 -90 66 -94 170 -7
246 52 45 98 58 207 57 159 -2 273 -55 316 -147 l24 -52 -1 80 c0 65 -2 76
-11 58 -6 -13 -15 -23 -19 -23 -5 0 -37 16 -72 35 -106 58 -246 79 -349 51z"/>
<path d="M365 1223 c11 -3 24 -8 28 -13 5 -4 -32 -151 -82 -326 -141 -501
-138 -484 -92 -536 24 -27 36 -33 69 -33 67 0 98 40 172 218 37 88 79 147 90
125 7 -13 90 -301 90 -313 0 -3 -10 -10 -22 -15 -17 -6 -2 -9 52 -8 41 0 66 2
55 5 -11 3 -23 8 -28 12 -11 11 -244 854 -240 868 3 6 12 14 21 16 10 3 -17 5
-58 5 -41 0 -66 -2 -55 -5z m116 -303 l66 -239 -25 -23 c-14 -13 -49 -75 -79
-138 -30 -63 -62 -123 -71 -134 -27 -29 -61 -38 -98 -26 -43 14 -64 44 -64 90
0 19 43 187 95 373 52 186 95 341 95 344 0 31 25 -46 81 -247z"/>
<path d="M830 1223 c39 -14 40 -24 40 -448 0 -424 -1 -434 -40 -448 -8 -3 78
-6 193 -6 l207 -1 -1 43 c-1 27 -3 33 -6 17 -9 -48 -17 -50 -169 -50 l-144 0
0 419 c0 240 4 430 9 445 6 13 20 26 33 29 13 2 -13 5 -57 5 -44 0 -73 -2 -65
-5z"/>
<path d="M1360 1217 c22 -11 25 -20 28 -78 3 -63 2 -65 -25 -76 l-28 -12 28 6
27 5 -2 -358 -3 -358 -25 -13 c-21 -11 9 -13 183 -13 l207 0 0 33 0 32 -13
-25 c-12 -25 -14 -25 -155 -28 l-142 -3 0 356 0 356 22 -12 c12 -7 49 -33 83
-59 80 -63 119 -82 158 -77 l32 4 -35 1 c-27 2 -53 16 -110 62 -41 33 -92 68
-112 78 l-37 17 -1 83 0 83 148 -3 147 -3 12 -35 12 -35 0 43 1 42 -212 0
c-178 0 -209 -2 -188 -13z"/>
<path d="M1866 1223 c12 -2 28 -12 36 -21 15 -18 178 -425 178 -444 0 -6 -36
-102 -81 -214 -70 -178 -84 -204 -107 -213 -23 -8 -19 -9 28 -9 30 0 47 2 38
5 -10 2 -18 12 -18 21 0 21 143 382 151 382 8 0 149 -361 149 -382 0 -9 -8
-19 -17 -21 -10 -3 16 -5 57 -5 60 0 70 2 48 9 -23 9 -38 38 -117 237 -50 125
-91 232 -91 238 0 17 139 365 155 391 8 12 25 24 37 26 13 2 -1 5 -31 6 -47 1
-52 -1 -37 -12 16 -12 13 -25 -54 -192 -39 -99 -75 -183 -78 -187 -4 -4 -40
77 -81 179 -70 177 -73 187 -56 200 16 11 9 13 -56 12 -41 -1 -64 -4 -53 -6z"/>
<path d="M2598 1223 c13 -3 25 -10 28 -17 3 -7 -22 -107 -55 -222 -113 -395
-151 -540 -151 -571 0 -38 39 -88 76 -97 41 -11 89 11 116 52 14 20 44 82 67
136 45 107 75 156 94 156 10 0 97 -282 97 -313 0 -4 -10 -12 -22 -17 -17 -6
-3 -9 52 -9 59 0 70 2 50 10 -13 6 -25 11 -26 12 -7 7 -234 838 -234 855 0 13
8 22 23 25 12 2 -14 4 -58 4 -44 0 -70 -2 -57 -4z m113 -296 l67 -242 -30 -31
c-16 -17 -47 -73 -69 -125 -66 -152 -106 -191 -175 -169 -41 14 -64 44 -64 85
0 33 190 725 199 725 3 0 36 -109 72 -243z"/>
<path d="M3053 1218 l27 -10 -2 -431 -3 -431 -25 -13 c-23 -12 -20 -13 35 -12
46 0 55 2 37 9 -12 5 -25 15 -27 22 -3 7 -4 202 -3 433 l3 420 20 -40 c11 -22
112 -222 225 -445 l205 -405 5 445 5 444 25 13 c23 12 20 13 -35 12 -41 -1
-52 -3 -35 -8 l25 -7 2 -384 3 -385 -31 55 c-17 30 -107 207 -200 393 l-169
337 -58 -1 c-50 0 -54 -2 -29 -11z"/>
<path d="M3710 1223 c39 -14 40 -24 40 -448 0 -424 -1 -434 -40 -448 -8 -3 86
-6 210 -6 158 -1 240 3 275 13 219 58 354 243 343 467 -7 140 -64 248 -178
338 -99 78 -132 85 -415 88 -137 1 -243 0 -235 -4z m497 -18 c116 -34 204
-128 246 -260 30 -96 30 -263 -1 -347 -31 -86 -85 -161 -145 -201 -83 -57
-135 -67 -339 -67 l-178 0 0 445 0 445 183 0 c134 0 197 -4 234 -15z"/>
<path d="M4650 1218 l25 -14 0 -429 0 -429 -25 -13 c-22 -11 -16 -13 55 -12
66 0 75 2 53 11 l-28 10 0 193 0 194 38 41 c22 22 43 40 48 40 5 0 25 -50 44
-111 95 -308 258 -520 455 -595 60 -23 244 -26 314 -6 62 19 47 22 -29 6 -265
-56 -462 68 -614 386 -30 63 -68 156 -84 205 -48 146 -47 138 -1 165 55 30
107 77 125 111 7 15 14 54 14 85 0 69 -25 111 -85 146 -36 21 -55 23 -185 26
-125 2 -142 1 -120 -10z m275 -23 c50 -29 75 -75 75 -139 0 -90 -43 -154 -140
-208 -30 -17 -72 -47 -92 -66 l-38 -36 0 237 0 237 77 0 c63 0 84 -4 118 -25z"/>
<path d="M5170 1217 l25 -13 0 -429 0 -429 -25 -13 c-22 -11 -16 -13 55 -12
66 0 75 2 52 11 l-27 10 2 436 3 436 25 7 c15 4 -6 7 -55 8 -71 1 -77 -1 -55
-12z"/>
<path d="M5575 1223 c11 -3 24 -8 28 -13 5 -4 -32 -151 -82 -326 -141 -501
-138 -484 -92 -536 24 -27 36 -33 69 -33 67 0 98 40 172 218 37 88 79 147 90
125 7 -13 90 -301 90 -313 0 -3 -10 -10 -22 -15 -17 -6 -2 -9 52 -8 41 0 66 2
55 5 -11 3 -23 8 -28 12 -11 11 -244 854 -240 868 3 6 12 14 21 16 10 3 -17 5
-58 5 -41 0 -66 -2 -55 -5z m116 -303 l66 -239 -25 -23 c-14 -13 -49 -75 -79
-138 -30 -63 -62 -123 -71 -134 -27 -29 -61 -38 -98 -26 -43 14 -64 44 -64 90
0 19 43 187 95 373 52 186 95 341 95 344 0 31 25 -46 81 -247z"/>
<path d="M6882 482 c-24 -71 -122 -141 -222 -161 -32 -6 -37 -9 -18 -10 45 -2
133 37 181 79 41 36 85 105 74 116 -3 3 -9 -8 -15 -24z"/>
<path d="M6241 394 c1 -43 4 -69 6 -56 7 35 24 36 100 9 69 -25 189 -48 240
-46 15 1 -13 7 -64 15 -113 16 -191 52 -244 113 l-39 44 1 -79z"/>
</g>
</svg>
